<svg xmlns="http://www.w3.org/2000/svg" version="1.1" viewBox="199 211.56 102 76.64">
<path d="M0 0 C2.5 1.5625 2.5 1.5625 4 4 C4.51470588 9.97058824 4.51470588 9.97058824 3 13 C3.99 13 4.98 13 6 13 C6.0825 11.9275 6.165 10.855 6.25 9.75 C7.06633334 5.6683333 7.58379277 4.30824813 11 2 C14.7555677 1.36075443 16.47784863 1.70991591 19.8125 3.5625 C22.59037881 6.65785068 22.76435605 8.91550495 23 13 C25.31 13.66 27.62 14.32 30 15 C30 15.66 30 16.32 30 17 C30.66 17 31.32 17 32 17 C32 17.66 32 18.32 32 19 C36.29888613 17.48134786 36.29888613 17.48134786 40 15 C41.99958364 14.95919217 44.00045254 14.95745644 46 15 C46.495 17.475 46.495 17.475 47 20 C40.5737569 25.2922002 35.13952903 25.61046468 27 25 C28.94743536 36.10979664 31.03431195 47.07500304 34.33666992 57.87255859 C37.38799453 68.08093593 37.38799453 68.08093593 37 73 C35.6706543 74.77246094 35.6706543 74.77246094 34 76 C30.65807308 75.75546876 29.39456443 75.39456443 27 73 C26.34570312 71.13989258 26.34570312 71.13989258 25.78125 68.89453125 C25.57113281 68.07533203 25.36101562 67.25613281 25.14453125 66.41210938 C24.82548828 65.12530273 24.82548828 65.12530273 24.5 63.8125 C24.07357299 62.1313438 23.6464997 60.45035139 23.21875 58.76953125 C23.01507813 57.96338379 22.81140625 57.15723633 22.6015625 56.32666016 C21.79302325 53.19947711 20.90614399 50.10018707 20 47 C19.98018066 47.80743652 19.96036133 48.61487305 19.93994141 49.44677734 C19.84494101 53.08985875 19.73516088 56.73234686 19.625 60.375 C19.5940625 61.64601563 19.563125 62.91703125 19.53125 64.2265625 C19.49257813 65.43828125 19.45390625 66.65 19.4140625 67.8984375 C19.36693115 69.57945557 19.36693115 69.57945557 19.31884766 71.29443359 C19 74 19 74 17 76 C13.9375 75.75 13.9375 75.75 11 75 C9.55323422 72.10646844 9.81619179 69.52733454 9.75390625 66.296875 C9.72089011 64.90884971 9.68768013 63.52082901 9.65429688 62.1328125 C9.60750134 59.96130593 9.56323394 57.78980591 9.52319336 55.61816406 C9.33574038 45.91550805 8.61933293 36.58917664 7 27 C6.99413376 27.55488098 6.98826752 28.10976196 6.98222351 28.68145752 C6.91828908 34.45675705 6.8338696 40.23149935 6.73754883 46.00634766 C6.7042946 48.16154636 6.67626423 50.31683226 6.65356445 52.47216797 C6.620028 55.57036497 6.56771197 58.66776255 6.51171875 61.765625 C6.50213387 63.21113739 6.50213387 63.21113739 6.49235535 64.68585205 C6.47256119 65.58648376 6.45276703 66.48711548 6.43237305 67.41503906 C6.42126999 68.20557678 6.41016693 68.9961145 6.39872742 69.81060791 C5.89758626 72.56234868 4.8988832 73.97078329 3 76 C-0.60570855 76.55472439 -2.89608238 75.83935859 -6 74 C-6 74.66 -6 75.32 -6 76 C-10.50861732 76.36556357 -10.50861732 76.36556357 -12.64094543 74.77922058 C-14.37993525 72.50260377 -14.39419857 71.19278638 -14.43237305 68.3449707 C-14.46206429 66.93384758 -14.46206429 66.93384758 -14.49235535 65.49421692 C-14.49874527 64.48163315 -14.50513519 63.46904938 -14.51171875 62.42578125 C-14.52966995 61.38681198 -14.54762115 60.34784271 -14.56611633 59.27738953 C-14.62034043 55.95580109 -14.65415428 52.63435734 -14.6875 49.3125 C-14.72066234 47.06182877 -14.75515097 44.81117666 -14.79101562 42.56054688 C-14.87607368 37.04049432 -14.94437223 31.52042331 -15 26 C-16.92419763 37.20575242 -17.36182702 48.10575963 -17.45629883 59.44360352 C-17.47785774 61.6229491 -17.5171842 63.80142346 -17.55859375 65.98046875 C-17.57204834 67.25817139 -17.58550293 68.53587402 -17.59936523 69.85229492 C-18 73 -18 73 -19.36352539 74.9543457 C-21 76 -21 76 -23.625 75.75 C-26 75 -26 75 -27 74 C-27.1584265 71.9291528 -27.25124422 69.85321971 -27.31640625 67.77734375 C-27.35830078 66.51728516 -27.40019531 65.25722656 -27.44335938 63.95898438 C-27.48317596 62.61849264 -27.52288814 61.2779978 -27.5625 59.9375 C-27.60568042 58.59308477 -27.64929456 57.2486834 -27.69335938 55.90429688 C-27.79985358 52.6029766 -27.9018646 49.30157764 -28 46 C-28.4238805 47.57502804 -28.84747038 49.15013474 -29.26977539 50.72558594 C-29.6337642 52.08329857 -29.99884889 53.44071784 -30.36499023 54.79785156 C-31.77052947 60.0404328 -33.02536173 65.30785579 -34.19140625 70.609375 C-35.06318575 73.18681005 -35.81731862 74.39285152 -38 76 C-40.67479327 75.73904456 -42.60095141 75.1995243 -45 74 C-45.17144791 69.1382272 -44.70808906 65.25723677 -43.25 60.625 C-39.94173978 49.59354154 -37.00881062 38.50044111 -36 27 C-35.67 26.34 -35.34 25.68 -35 25 C-35.79664063 25.03480469 -36.59328125 25.06960937 -37.4140625 25.10546875 C-47.93848858 25.37434095 -47.93848858 25.37434095 -53 22 C-53 21.34 -53 20.68 -53 20 C-53.66 20 -54.32 20 -55 20 C-54.67 18.35 -54.34 16.7 -54 15 C-49.42409231 14.68800629 -47.49497103 15.08752415 -44 18 C-41.85266073 18.70514846 -41.85266073 18.70514846 -40 19 C-40 18.34 -40 17.68 -40 17 C-39.34 17 -38.68 17 -38 17 C-38 16.34 -38 15.68 -38 15 C-35.35261084 13.5393715 -34.10551666 13 -31 13 C-30.896875 11.906875 -30.79375 10.81375 -30.6875 9.6875 C-29.81910728 5.02975724 -29.81910728 5.02975724 -27 3 C-24.15916359 1.57958179 -22.14522722 1.68547728 -19 2 C-16.625 3.5 -16.625 3.5 -15 6 C-14.67361266 8.75849942 -14.81365661 11.20484912 -15 14 C-14.01 13.34 -13.02 12.68 -12 12 C-12.03238728 9.99198894 -12.06686201 7.98387609 -12.12890625 5.9765625 C-12 4 -12 4 -10.5 1.5 C-6.9683809 -0.61897146 -4.01676563 -0.79841448 0 0 Z " fill="#0BBD67" transform="translate(254,212)"/>
<path d="M0 0 C6.875 0.875 6.875 0.875 8 2 C8.23529412 9.29411765 8.23529412 9.29411765 7 13 C7.556875 13.12375 8.11375 13.2475 8.6875 13.375 C11.22114364 14.05976855 13.57921032 14.99133763 16 16 C15.67 16.66 15.34 17.32 15 18 C13.68 18 12.36 18 11 18 C11 20.6637425 11.01375097 23.32680991 11.03173828 25.99047852 C11.06762101 31.62896579 11.09080248 37.26743844 11.10986328 42.90600586 C11.11996191 45.34547639 11.13363911 47.78493472 11.15087891 50.22436523 C11.17504085 53.7342425 11.18646018 57.24396124 11.1953125 60.75390625 C11.20563507 61.84973526 11.21595764 62.94556427 11.22659302 64.07460022 C11.22674408 65.08582443 11.22689514 66.09704865 11.22705078 67.13891602 C11.231492 68.0314357 11.23593323 68.92395538 11.24050903 69.84352112 C11 72 11 72 9 74 C5.38245897 74.38079379 3.11598788 73.84651134 0 72 C0 72.66 0 73.32 0 74 C-4.50861732 74.36556357 -4.50861732 74.36556357 -6.64094543 72.77922058 C-8.37993525 70.50260377 -8.39419857 69.19278638 -8.43237305 66.3449707 C-8.45216721 65.40422195 -8.47196136 64.46347321 -8.49235535 63.49421692 C-8.49874527 62.48163315 -8.50513519 61.46904938 -8.51171875 60.42578125 C-8.52966995 59.38681198 -8.54762115 58.34784271 -8.56611633 57.27738953 C-8.62034043 53.95580109 -8.65415428 50.63435734 -8.6875 47.3125 C-8.72066234 45.06182877 -8.75515097 42.81117666 -8.79101562 40.56054688 C-8.87607368 35.04049432 -8.94437223 29.52042331 -9 24 C-9.99 24 -10.98 24 -12 24 C-12.33 24.66 -12.66 25.32 -13 26 C-15 23 -15 23 -15 19 C-13.68 19.33 -12.36 19.66 -11 20 C-11 19.34 -11 18.68 -11 18 C-10.34 18 -9.68 18 -9 18 C-8.67 17.01 -8.34 16.02 -8 15 C-6.68 15 -5.36 15 -4 15 C-4 11.7 -4 8.4 -4 5 C-3.01 4.67 -2.02 4.34 -1 4 C-0.26676204 1.98491642 -0.26676204 1.98491642 0 0 Z " fill="#03BD63" transform="translate(248,214)"/>
<path d="M0 0 C2.8125 1.5625 2.8125 1.5625 5 4 C5.8125 7.75 5.8125 7.75 6 11 C8.31 11.66 10.62 12.32 13 13 C13 13.66 13 14.32 13 15 C13.66 15 14.32 15 15 15 C15 15.66 15 16.32 15 17 C19.29888613 15.48134786 19.29888613 15.48134786 23 13 C24.99958364 12.95919217 27.00045254 12.95745644 29 13 C29.495 15.475 29.495 15.475 30 18 C28.73461631 18.84158536 27.46246221 19.67299748 26.1875 20.5 C25.47980469 20.9640625 24.77210938 21.428125 24.04296875 21.90625 C22 23 22 23 19 23 C19 22.34 19 21.68 19 21 C19.66 21 20.32 21 21 21 C21 20.34 21 19.68 21 19 C18.69 18.67 16.38 18.34 14 18 C14 17.34 14 16.68 14 16 C13.34 16 12.68 16 12 16 C12 16.99 12 17.98 12 19 C12.66 19.33 13.32 19.66 14 20 C12.68 20.33 11.36 20.66 10 21 C9.67 20.01 9.34 19.02 9 18 C8.01 17.67 7.02 17.34 6 17 C6.66 16.34 7.32 15.68 8 15 C6.68 14.01 5.36 13.02 4 12 C4 12.99 4 13.98 4 15 C2.23141286 16.76858714 -0.22884514 16.21432524 -2.625 16.25 C-7.90500363 16.22479712 -11.39110762 15.5139413 -16 13 C-16 12.67 -16 12.34 -16 12 C-14.35 11.67 -12.7 11.34 -11 11 C-10.9175 9.9275 -10.835 8.855 -10.75 7.75 C-9.46886 1.3443 -6.56007122 -1.07103204 0 0 Z " fill="#0CBC68" transform="translate(271,214)"/>
<path d="M0 0 C1.32 0.33 2.64 0.66 4 1 C4.02505615 1.65597168 4.0501123 2.31194336 4.07592773 2.98779297 C4.1917326 5.95040183 4.31452886 8.91268031 4.4375 11.875 C4.47681641 12.90753906 4.51613281 13.94007813 4.55664062 15.00390625 C4.59853516 15.99003906 4.64042969 16.97617188 4.68359375 17.9921875 C4.72025146 18.90339355 4.75690918 19.81459961 4.79467773 20.75341797 C4.86577065 23.03483481 4.86577065 23.03483481 6 25 C6.08527628 27.03232634 6.10716135 29.06747006 6.09765625 31.1015625 C6.09282227 32.91914063 6.09282227 32.91914063 6.08789062 34.7734375 C6.07951172 36.04445313 6.07113281 37.31546875 6.0625 38.625 C6.05798828 39.90375 6.05347656 41.1825 6.04882812 42.5 C6.03701203 45.66671292 6.02053815 48.83333356 6 52 C7.32 52 8.64 52 10 52 C10.33 43.09 10.66 34.18 11 25 C11.33 25 11.66 25 12 25 C12.92159579 31.21170074 13.12177385 37.22609106 13.0625 43.5 C13.05798828 44.4178125 13.05347656 45.335625 13.04882812 46.28125 C13.03716326 48.52090391 13.02079614 50.76041545 13 53 C12.01 53 11.02 53 10 53 C10 53.66 10 54.32 10 55 C5.49138268 55.36556357 5.49138268 55.36556357 3.35905457 53.77922058 C1.62006475 51.50260377 1.60580143 50.19278638 1.56762695 47.3449707 C1.54783279 46.40422195 1.52803864 45.46347321 1.50764465 44.49421692 C1.50125473 43.48163315 1.49486481 42.46904938 1.48828125 41.42578125 C1.47033005 40.38681198 1.45237885 39.34784271 1.43388367 38.27738953 C1.37965957 34.95580109 1.34584572 31.63435734 1.3125 28.3125 C1.27933766 26.06182877 1.24484903 23.81117666 1.20898438 21.56054688 C1.12392632 16.04049432 1.05562777 10.52042331 1 5 C0.67 5 0.34 5 0 5 C0 3.35 0 1.7 0 0 Z " fill="#5BD69C" transform="translate(238,233)"/>
<path d="M0 0 C1.65 0 3.3 0 5 0 C5.144375 1.134375 5.28875 2.26875 5.4375 3.4375 C5.61171478 6.80777201 5.61171478 6.80777201 7 8 C7.09295815 9.44289787 7.11746513 10.89029785 7.11352539 12.33618164 C7.11344986 13.2570607 7.11337433 14.17793976 7.11329651 15.12672424 C7.10813522 16.12775681 7.10297394 17.12878937 7.09765625 18.16015625 C7.0962413 19.17975937 7.09482635 20.19936249 7.09336853 21.24986267 C7.08775097 24.52077107 7.0751955 27.79161213 7.0625 31.0625 C7.05748726 33.27408756 7.05292396 35.48567618 7.04882812 37.69726562 C7.03777584 43.13153357 7.02102063 48.56576197 7 54 C6.67 54 6.34 54 6 54 C5.98018066 53.10394043 5.96036133 52.20788086 5.93994141 51.28466797 C5.86080063 47.88861065 5.77408996 44.49290738 5.68261719 41.09716797 C5.64485752 39.64086076 5.60992376 38.18447691 5.578125 36.72802734 C5.53129424 34.60747216 5.47353087 32.48742199 5.4140625 30.3671875 C5.3826416 29.09987793 5.3512207 27.83256836 5.31884766 26.52685547 C4.88155944 20.31843431 3.88017855 14.16124987 3 8 C2.67 22.85 2.34 37.7 2 53 C1.67 53 1.34 53 1 53 C0.67 38.15 0.34 23.3 0 8 C-0.33 8 -0.66 8 -1 8 C-0.67 5.36 -0.34 2.72 0 0 Z " fill="#7EDDB5" transform="translate(258,231)"/>
<path d="M0 0 C0.33 0 0.66 0 1 0 C1.05058332 7.2265322 1.08568412 14.45301899 1.10986328 21.6796875 C1.11993983 24.13966579 1.13360131 26.59963206 1.15087891 29.05957031 C1.17505461 32.58922285 1.1864664 36.11871747 1.1953125 39.6484375 C1.20563507 40.75367767 1.21595764 41.85891785 1.22659302 42.99765015 C1.22674408 44.01855743 1.22689514 45.03946472 1.22705078 46.09130859 C1.231492 46.99287689 1.23593323 47.89444519 1.24050903 48.82333374 C1 51 1 51 -1 53 C-3.5625 53.1875 -3.5625 53.1875 -6 53 C-7.65079442 51.34920558 -7.22549447 49.36263821 -7.31640625 47.08984375 C-7.35830078 46.10048828 -7.40019531 45.11113281 -7.44335938 44.09179688 C-7.48267578 43.05087891 -7.52199219 42.00996094 -7.5625 40.9375 C-7.60568359 39.89271484 -7.64886719 38.84792969 -7.69335938 37.77148438 C-7.79981225 35.18113116 -7.9018276 32.59067814 -8 30 C-7.34 29.67 -6.68 29.34 -6 29 C-6 35.93 -6 42.86 -6 50 C-4.35 50 -2.7 50 -1 50 C-1.00222061 49.44733963 -1.00444122 48.89467926 -1.00672913 48.32527161 C-1.02887515 42.56638232 -1.04394553 36.80750515 -1.05493164 31.04858398 C-1.05995629 28.90014148 -1.06677708 26.7517024 -1.07543945 24.60327148 C-1.08758678 21.5128495 -1.09324705 18.42247278 -1.09765625 15.33203125 C-1.10281754 14.37351761 -1.10797882 13.41500397 -1.11329651 12.42744446 C-1.11337204 11.52688828 -1.11344757 10.62633209 -1.11352539 9.69848633 C-1.115746 8.91016922 -1.11796661 8.12185211 -1.12025452 7.30964661 C-0.98936816 4.79580145 -0.54820896 2.45389823 0 0 Z " fill="#20AD6B" transform="translate(258,235)"/>
<path d="M0 0 C0.33 1.32 0.66 2.64 1 4 C3.31 4.66 5.62 5.32 8 6 C8 6.66 8 7.32 8 8 C8.66 8 9.32 8 10 8 C10 8.66 10 9.32 10 10 C14.29888613 8.48134786 14.29888613 8.48134786 18 6 C19.99958364 5.95919217 22.00045254 5.95745644 24 6 C24.33 7.65 24.66 9.3 25 11 C23.73461631 11.84158536 22.46246221 12.67299748 21.1875 13.5 C20.47980469 13.9640625 19.77210938 14.428125 19.04296875 14.90625 C17 16 17 16 14 16 C14 15.34 14 14.68 14 14 C14.66 14 15.32 14 16 14 C16 13.34 16 12.68 16 12 C13.69 11.67 11.38 11.34 9 11 C9 10.34 9 9.68 9 9 C8.34 9 7.68 9 7 9 C7 9.99 7 10.98 7 12 C7.66 12.33 8.32 12.66 9 13 C7.68 13.33 6.36 13.66 5 14 C4.67 13.01 4.34 12.02 4 11 C3.01 10.67 2.02 10.34 1 10 C1.66 9.34 2.32 8.68 3 8 C1.68 7.01 0.36 6.02 -1 5 C-0.67 3.35 -0.34 1.7 0 0 Z " fill="#59C993" transform="translate(276,221)"/>
<path d="M0 0 C4.57590769 -0.31199371 6.50502897 0.08752415 10 3 C12.14733927 3.70514846 12.14733927 3.70514846 14 4 C14 3.34 14 2.68 14 2 C15.65 1.67 17.3 1.34 19 1 C19 3 19 3 17.875 4.5625 C15.36053022 6.49026016 13.10454033 6.65505107 10 7 C12.29629994 8.14814997 14.07698086 8.30769809 16.625 8.5625 C18.06875 8.706875 19.5125 8.85125 21 9 C21.33 11.97 21.66 14.94 22 18 C21.01 18.33 20.02 18.66 19 19 C19 16.03 19 13.06 19 10 C18.20335937 10.03480469 17.40671875 10.06960937 16.5859375 10.10546875 C6.06151142 10.37434095 6.06151142 10.37434095 1 7 C1 6.34 1 5.68 1 5 C0.34 5 -0.32 5 -1 5 C-0.67 3.35 -0.34 1.7 0 0 Z " fill="#14B56A" transform="translate(200,227)"/>
<path d="M0 0 C0.02907084 3.58331625 0.04682263 7.16660208 0.0625 10.75 C0.07087891 11.76578125 0.07925781 12.7815625 0.08789062 13.828125 C0.09111328 14.8078125 0.09433594 15.7875 0.09765625 16.796875 C0.10289307 17.69760742 0.10812988 18.59833984 0.11352539 19.52636719 C0.00762312 21.83389804 -0.34867187 23.79134405 -1 26 C-2.32 25.67 -3.64 25.34 -5 25 C-5 17.08 -5 9.16 -5 1 C-2 0 -2 0 0 0 Z " fill="#02BD63" transform="translate(234,260)"/>
<path d="M0 0 C2.5 1.5625 2.5 1.5625 4 4 C4.51470588 9.97058824 4.51470588 9.97058824 3 13 C3.66 13.33 4.32 13.66 5 14 C3.68 14 2.36 14 1 14 C1 10.7 1 7.4 1 4 C-1.31 3.67 -3.62 3.34 -6 3 C-6.33 3.99 -6.66 4.98 -7 6 C-7.99 6.495 -7.99 6.495 -9 7 C-9 9.31 -9 11.62 -9 14 C-10.32 13.67 -11.64 13.34 -13 13 C-12.67 12.67 -12.34 12.34 -12 12 C-12.061875 10.741875 -12.12375 9.48375 -12.1875 8.1875 C-12.20373343 5.17349389 -12.0992389 4.16539816 -10.5 1.5 C-6.9683809 -0.61897146 -4.01676563 -0.79841448 0 0 Z " fill="#47C289" transform="translate(254,212)"/>
<path d="M0 0 C0.66 0.33 1.32 0.66 2 1 C2.0272415 2.41655793 2.04650467 3.83327045 2.0625 5.25 C2.07410156 6.03890625 2.08570313 6.8278125 2.09765625 7.640625 C2.00385306 9.90691002 1.63241063 11.8288895 1 14 C-0.66611905 14.042721 -2.33382885 14.04063832 -4 14 C-5 13 -5 13 -5.01953125 10.8203125 C-4.95121094 9.93085938 -4.88289062 9.04140625 -4.8125 8.125 C-4.75707031 7.24070312 -4.70164063 6.35640625 -4.64453125 5.4453125 C-3.83806065 2.38561193 -2.65353793 1.60594881 0 0 Z " fill="#05BC62" transform="translate(217,271)"/>
<path d="M0 0 C0.66 0 1.32 0 2 0 C2 0.66 2 1.32 2 2 C4.31 2.33 6.62 2.66 9 3 C9 3.66 9 4.32 9 5 C8.34 5 7.68 5 7 5 C7 5.66 7 6.32 7 7 C4.03 7 1.06 7 -2 7 C-1.67 7.99 -1.34 8.98 -1 10 C-0.93259135 11.56118428 -0.91485544 13.1250252 -0.9375 14.6875 C-0.94652344 15.49574219 -0.95554687 16.30398437 -0.96484375 17.13671875 C-0.97644531 17.75160156 -0.98804688 18.36648437 -1 19 C-1.33 19 -1.66 19 -2 19 C-3.5912689 14.126739 -4.21192221 10.19209404 -4 5 C-2.35 4.67 -0.7 4.34 1 4 C0.67 2.68 0.34 1.36 0 0 Z " fill="#20B770" transform="translate(283,230)"/>
<path d="M0 0 C0.66 0 1.32 0 2 0 C1.90150757 1.21357178 1.90150757 1.21357178 1.80102539 2.45166016 C1.06079695 12.0916232 0.69787675 21.71236557 0.4375 31.375 C0.3941537 32.90104946 0.35053531 34.42709122 0.30664062 35.953125 C0.20130413 39.63533358 0.09960138 43.31763128 0 47 C-0.33 47 -0.66 47 -1 47 C-1.02529825 40.62793828 -1.04284496 34.25588946 -1.05493164 27.88378906 C-1.05996891 25.71483883 -1.06679891 23.545892 -1.07543945 21.37695312 C-1.08753151 18.26431437 -1.09323428 15.1517204 -1.09765625 12.0390625 C-1.10281754 11.065065 -1.10797882 10.0910675 -1.11329651 9.08755493 C-1.11337204 8.18677216 -1.11344757 7.28598938 -1.11352539 6.35791016 C-1.115746 5.56293121 -1.11796661 4.76795227 -1.12025452 3.94888306 C-1 2 -1 2 0 0 Z " fill="#5EC999" transform="translate(236,238)"/>
<path d="M0 0 C0.99 0.33 1.98 0.66 3 1 C2.34 1 1.68 1 1 1 C1.88214887 3.88214887 1.88214887 3.88214887 3 6 C2.67 6.66 2.34 7.32 2 8 C1.34 8 0.68 8 0 8 C0 8.66 0 9.32 0 10 C-1.4370809 10.05422947 -2.87475462 10.09289723 -4.3125 10.125 C-5.11300781 10.14820313 -5.91351563 10.17140625 -6.73828125 10.1953125 C-9 10 -9 10 -12 8 C-11 7 -11 7 -7.9375 6.9375 C-6.4834375 6.9684375 -6.4834375 6.9684375 -5 7 C-4.67 6.01 -4.34 5.02 -4 4 C-2.70644173 2.62804426 -1.37701298 1.28817344 0 0 Z " fill="#09BC66" transform="translate(221,226)"/>
<path d="M0 0 C1.95360616 2.93040924 2.53851191 4.66618688 3.2890625 8.03515625 C3.50820313 9.00904297 3.72734375 9.98292969 3.953125 10.98632812 C4.17484375 12.00146484 4.3965625 13.01660156 4.625 14.0625 C4.85445313 15.08150391 5.08390625 16.10050781 5.3203125 17.15039062 C7 24.69398717 7 24.69398717 7 27 C6.01 27 5.02 27 4 27 C2.09158501 23.05594235 1.61539604 19.42826603 1.21875 15.12890625 C1.03178273 12.91342914 1.03178273 12.91342914 0.4375 10.4375 C-0.19123429 6.93455179 -0.06028386 3.55674783 0 0 Z " fill="#2EBD7E" transform="translate(282,249)"/>
<path d="M0 0 C1.32 0 2.64 0 4 0 C4 10.23 4 20.46 4 31 C3.67 31 3.34 31 3 31 C2.67 21.76 2.34 12.52 2 3 C1.01 6.3 0.02 9.6 -1 13 C-1.33 13 -1.66 13 -2 13 C-1.85966889 11.02043559 -1.7125877 9.04134859 -1.5625 7.0625 C-1.48128906 5.96035156 -1.40007812 4.85820312 -1.31640625 3.72265625 C-1 1 -1 1 0 0 Z " fill="#5BC493" transform="translate(224,255)"/>
<path d="M0 0 C0.66 0 1.32 0 2 0 C2 1.65 2 3.3 2 5 C2.66 5 3.32 5 4 5 C4.33 6.65 4.66 8.3 5 10 C6.65 10.33 8.3 10.66 10 11 C10 8.03 10 5.06 10 2 C11.86830571 5.73661142 12.508219 7.03589176 12 11 C10.8125 12.875 10.8125 12.875 9 14 C5.65807308 13.75546876 4.39456443 13.39456443 2 11 C0.70293009 7.10879026 0 4.12193682 0 0 Z " fill="#5FC795" transform="translate(279,274)"/>
<path d="M0 0 C4.57590769 -0.31199371 6.50502897 0.08752415 10 3 C12.14733927 3.70514846 12.14733927 3.70514846 14 4 C14 3.34 14 2.68 14 2 C14.66 2.33 15.32 2.66 16 3 C15.67 3.66 15.34 4.32 15 5 C9.57960425 5.40652968 5.92984325 4.03993514 1 2 C1 2.66 1 3.32 1 4 C1.99 4 2.98 4 4 4 C4 4.66 4 5.32 4 6 C4.99 6.33 5.98 6.66 7 7 C7 7.66 7 8.32 7 9 C5.02 8.34 3.04 7.68 1 7 C1 6.34 1 5.68 1 5 C0.34 5 -0.32 5 -1 5 C-0.67 3.35 -0.34 1.7 0 0 Z " fill="#5DC793" transform="translate(200,227)"/>
<path d="M0 0 C0.99 0.33 1.98 0.66 3 1 C3.33 1.99 3.66 2.98 4 4 C4.33 4.66 4.66 5.32 5 6 C4.67 6.66 4.34 7.32 4 8 C3.84824451 9.59262066 3.75099675 11.19064856 3.68359375 12.7890625 C3.64169922 13.73007812 3.59980469 14.67109375 3.55664062 15.640625 C3.49766602 17.11789062 3.49766602 17.11789062 3.4375 18.625 C3.39431641 19.61757813 3.35113281 20.61015625 3.30664062 21.6328125 C3.20038931 24.08839838 3.09835036 26.54408703 3 29 C2.67 29 2.34 29 2 29 C1.67 22.4 1.34 15.8 1 9 C0.67 9 0.34 9 0 9 C-0.87890625 2.84765625 -0.87890625 2.84765625 -1 1 C-0.67 0.67 -0.34 0.34 0 0 Z " fill="#0CB869" transform="translate(250,256)"/>
<path d="M0 0 C0.66 0.66 1.32 1.32 2 2 C0.6078125 1.9071875 0.6078125 1.9071875 -0.8125 1.8125 C-3.90810366 1.7139356 -3.90810366 1.7139356 -5.6875 3.1875 C-7.45312631 5.62574585 -7.30348915 7.21044507 -7.1875 10.1875 C-7.16042969 11.08855469 -7.13335937 11.98960937 -7.10546875 12.91796875 C-7.07066406 13.60503906 -7.03585937 14.29210937 -7 15 C-9.475 14.01 -9.475 14.01 -12 13 C-10.70644774 5.03444133 -10.70644774 5.03444133 -8.25 1.4375 C-5.30133895 -0.44636678 -3.43522196 -0.44807243 0 0 Z " fill="#4DC58D" transform="translate(271,214)"/>
<path d="M0 0 C0.061875 0.61875 0.12375 1.2375 0.1875 1.875 C0.82224359 4.26817585 0.82224359 4.26817585 3.5 5.1875 C4.325 5.455625 5.15 5.72375 6 6 C7 7 7 7 7.0625 9.5625 C7.041875 10.366875 7.02125 11.17125 7 12 C7.66 12.33 8.32 12.66 9 13 C7.68 13.33 6.36 13.66 5 14 C4.67 13.01 4.34 12.02 4 11 C3.01 10.67 2.02 10.34 1 10 C1.66 9.34 2.32 8.68 3 8 C1.68 7.01 0.36 6.02 -1 5 C-0.67 3.35 -0.34 1.7 0 0 Z " fill="#32C581" transform="translate(276,221)"/>
<path d="M0 0 C0.33 0 0.66 0 1 0 C1 8.25 1 16.5 1 25 C2.98 25 4.96 25 7 25 C7.33 24.34 7.66 23.68 8 23 C7.67 24.65 7.34 26.3 7 28 C4.625 28.125 4.625 28.125 2 28 C0 26 0 26 -0.22705078 23.38623047 C-0.21657715 22.30744629 -0.20610352 21.22866211 -0.1953125 20.1171875 C-0.18886719 18.95058594 -0.18242187 17.78398437 -0.17578125 16.58203125 C-0.15902344 15.35871094 -0.14226562 14.13539063 -0.125 12.875 C-0.11597656 11.64394531 -0.10695312 10.41289062 -0.09765625 9.14453125 C-0.07402548 6.09616185 -0.04108054 3.04817618 0 0 Z " fill="#2DAB6D" transform="translate(241,260)"/>
<path d="M0 0 C0.33 0 0.66 0 1 0 C0.98839844 0.75925781 0.97679687 1.51851562 0.96484375 2.30078125 C0.95582031 3.29464844 0.94679687 4.28851563 0.9375 5.3125 C0.92589844 6.29863281 0.91429687 7.28476563 0.90234375 8.30078125 C0.87670138 11.09963849 0.87670138 11.09963849 2 14 C1.00390625 16.91796875 1.00390625 16.91796875 -0.4375 20.1875 C-0.91058594 21.27417969 -1.38367188 22.36085938 -1.87109375 23.48046875 C-2.24363281 24.31191406 -2.61617187 25.14335937 -3 26 C-3.33 26 -3.66 26 -4 26 C-4.41520709 20.87911253 -3.1437424 16.68894787 -1.734375 11.8359375 C-0.71333825 7.89299772 -0.33236808 4.05489059 0 0 Z " fill="#50CB94" transform="translate(218,239)"/>
<path d="M0 0 C1.53166168 4.08443115 0.63081652 7.79455657 0 12 C2.31 12 4.62 12 7 12 C6.01 13.485 6.01 13.485 5 15 C0.25 14.125 0.25 14.125 -2 13 C-2.19294408 8.17639811 -1.75747614 4.50353262 0 0 Z " fill="#64CB99" transform="translate(211,273)"/>
<path d="M0 0 C0.33 0 0.66 0 1 0 C1.33 6.93 1.66 13.86 2 21 C3.65 21.33 5.3 21.66 7 22 C6.67 22.66 6.34 23.32 6 24 C4.33388095 24.042721 2.66617115 24.04063832 1 24 C-1.44852182 21.55147818 -0.48512199 15.30770352 -0.625 12 C-0.6765625 10.96359375 -0.728125 9.9271875 -0.78125 8.859375 C-0.82507813 7.87453125 -0.86890625 6.8896875 -0.9140625 5.875 C-0.9548291 4.96492188 -0.9955957 4.05484375 -1.03759766 3.1171875 C-1 1 -1 1 0 0 Z " fill="#3BB77C" transform="translate(251,264)"/>
<path d="M0 0 C4.62 0 9.24 0 14 0 C14.33 2.97 14.66 5.94 15 9 C14.01 9.33 13.02 9.66 12 10 C12 7.03 12 4.06 12 1 C8.04 1 4.08 1 0 1 C0 0.67 0 0.34 0 0 Z " fill="#2CB677" transform="translate(207,236)"/>
<path d="M0 0 C0.66 0 1.32 0 2 0 C1.67 4.62 1.34 9.24 1 14 C0.34 14 -0.32 14 -1 14 C-1.02694851 12.04174127 -1.04637218 10.08337774 -1.0625 8.125 C-1.07410156 7.03445312 -1.08570313 5.94390625 -1.09765625 4.8203125 C-1 2 -1 2 0 0 Z " fill="#44BD86" transform="translate(236,238)"/>
<path d="M0 0 C0.66 0.99 1.32 1.98 2 3 C-0.52475462 4.26237731 -2.31200466 4.09856404 -5.125 4.0625 C-6.03507813 4.05347656 -6.94515625 4.04445312 -7.8828125 4.03515625 C-8.58148438 4.02355469 -9.28015625 4.01195312 -10 4 C-10 3.34 -10 2.68 -10 2 C-6.61242079 -0.08466413 -3.94726562 -0.42905061 0 0 Z " fill="#5CCA98" transform="translate(235,214)"/>
<path d="M0 0 C3.21764451 4.82646677 4.36261136 10.19821824 4 16 C1.05167671 13.56442859 0.4191506 11.77235538 0 8 C-0.06955793 5.32698803 -0.04534031 2.67507838 0 0 Z " fill="#52C293" transform="translate(282,249)"/>
<path d="M0 0 C1.65 0 3.3 0 5 0 C4.67 2.64 4.34 5.28 4 8 C3.67 6.68 3.34 5.36 3 4 C2.01 4 1.02 4 0 4 C-0.33 5.32 -0.66 6.64 -1 8 C-0.67 5.36 -0.34 2.72 0 0 Z " fill="#2BBF7B" transform="translate(258,231)"/>
<path d="M0 0 C0.33 0.99 0.66 1.98 1 3 C0.07767578 2.98259766 0.07767578 2.98259766 -0.86328125 2.96484375 C-2.07564453 2.95130859 -2.07564453 2.95130859 -3.3125 2.9375 C-4.11300781 2.92589844 -4.91351563 2.91429687 -5.73828125 2.90234375 C-8.16861334 2.90342145 -8.16861334 2.90342145 -11 4 C-10.67 3.01 -10.34 2.02 -10 1 C-6.78548731 -0.60725635 -3.56387464 -0.05748185 0 0 Z " fill="#47C189" transform="translate(254,212)"/>
<path d="M0 0 C1.3805087 3.76668598 0.59568159 6.44789173 -0.4375 10.25 C-0.72496094 11.32765625 -1.01242188 12.4053125 -1.30859375 13.515625 C-1.53675781 14.33546875 -1.76492187 15.1553125 -2 16 C-2.91787677 12.97031651 -3.04344865 10.57728581 -2.6875 7.4375 C-2.60886719 6.67308594 -2.53023437 5.90867187 -2.44921875 5.12109375 C-2 3 -2 3 0 0 Z " fill="#6FD1A4" transform="translate(221,269)"/>
<path d="M0 0 C1.98 0 3.96 0 6 0 C6.33 1.65 6.66 3.3 7 5 C6.01 5.33 5.02 5.66 4 6 C4 4.68 4 3.36 4 2 C2.35 2 0.7 2 -1 2 C-0.67 1.34 -0.34 0.68 0 0 Z " fill="#70CDA2" transform="translate(294,227)"/>
<path d="M0 0 C2.34545328 2.34545328 2.95508888 3.95985838 3.09765625 7.26171875 C3.08605469 8.06222656 3.07445312 8.86273438 3.0625 9.6875 C3.05347656 10.49574219 3.04445313 11.30398438 3.03515625 12.13671875 C3.02355469 12.75160156 3.01195312 13.36648438 3 14 C2.67 14 2.34 14 2 14 C0.66416101 9.15758367 -0.25328119 5.06562383 0 0 Z " fill="#52C998" transform="translate(276,260)"/>
<path d="M0 0 C0.33 0.99 0.66 1.98 1 3 C0.67 3.66 0.34 4.32 0 5 C-2.375 5.1875 -2.375 5.1875 -5 5 C-5.66 4.01 -6.32 3.02 -7 2 C-4.69 2 -2.38 2 0 2 C0 1.34 0 0.68 0 0 Z " fill="#52C08C" transform="translate(248,283)"/>
<path d="M0 0 C1.32 0.66 2.64 1.32 4 2 C3.34 2 2.68 2 2 2 C2 2.66 2 3.32 2 4 C0.02 4.33 -1.96 4.66 -4 5 C-4.33 4.34 -4.66 3.68 -5 3 C-4.360625 2.87625 -3.72125 2.7525 -3.0625 2.625 C-2.0415625 2.315625 -2.0415625 2.315625 -1 2 C-0.67 1.34 -0.34 0.68 0 0 Z " fill="#13BE6C" transform="translate(236,226)"/>
<path d="M0 0 C2.31 0.33 4.62 0.66 7 1 C6.67 1.99 6.34 2.98 6 4 C5.01 4 4.02 4 3 4 C3 3.34 3 2.68 3 2 C2.01 2 1.02 2 0 2 C0 1.34 0 0.68 0 0 Z " fill="#08BA65" transform="translate(201,229)"/>
<path d="M0 0 C1.32 0 2.64 0 4 0 C4 1.32 4 2.64 4 4 C2.35 4 0.7 4 -1 4 C-0.67 2.68 -0.34 1.36 0 0 Z " fill="#07BA64" transform="translate(294,229)"/>
</svg>