<svg xmlns="http://www.w3.org/2000/svg" version="1.1" viewBox="219 220 62 60.13">
<path d="M0 0 C1.32 0 2.64 0 4 0 C4 0.66 4 1.32 4 2 C4.66 2 5.32 2 6 2 C6 2.66 6 3.32 6 4 C6.54140625 4.2371875 7.0828125 4.474375 7.640625 4.71875 C10.63250137 6.34347757 13.11159399 8.3501877 15.75 10.5 C16.73484375 11.2940625 17.7196875 12.088125 18.734375 12.90625 C19.85585938 13.94265625 19.85585938 13.94265625 21 15 C21 15.66 21 16.32 21 17 C21.66 17 22.32 17 23 17 C24.42917743 19.85835486 24.12980809 22.31257719 24.1328125 25.50390625 C24.13410156 26.80134766 24.13539063 28.09878906 24.13671875 29.43554688 C24.13462402 30.11222412 24.1325293 30.78890137 24.13037109 31.48608398 C24.12501202 33.55785415 24.13032518 35.62940839 24.13671875 37.70117188 C24.13542969 38.99732422 24.13414062 40.29347656 24.1328125 41.62890625 C24.13168457 42.82588135 24.13055664 44.02285645 24.12939453 45.25610352 C24 48 24 48 23 49 C20.46950598 49.07313567 17.96695163 49.09247527 15.4375 49.0625 C14.72658203 49.05798828 14.01566406 49.05347656 13.28320312 49.04882812 C11.52209987 49.03700864 9.76103964 49.01907263 8 49 C8 44.71 8 40.42 8 36 C4.04 36 0.08 36 -4 36 C-3.979375 37.959375 -3.95875 39.91875 -3.9375 41.9375 C-3.91622812 43.95832876 -3.92755947 45.98035801 -4 48 C-5 49 -5 49 -8.125 49.1328125 C-9.40375 49.13023437 -10.6825 49.12765625 -12 49.125 C-13.27875 49.12757813 -14.5575 49.13015625 -15.875 49.1328125 C-19 49 -19 49 -20 48 C-20.10005826 45.87819862 -20.13081087 43.75306461 -20.1328125 41.62890625 C-20.13410156 40.33275391 -20.13539063 39.03660156 -20.13671875 37.70117188 C-20.13462402 37.0223999 -20.1325293 36.34362793 -20.13037109 35.64428711 C-20.1250313 33.57463211 -20.13031193 31.505195 -20.13671875 29.43554688 C-20.13542969 28.13810547 -20.13414062 26.84066406 -20.1328125 25.50390625 C-20.13168457 24.30580322 -20.13055664 23.1077002 -20.12939453 21.87329102 C-20 19 -20 19 -19 17 C-18.34 17 -17.68 17 -17 17 C-17 16.34 -17 15.68 -17 15 C-16.34 15 -15.68 15 -15 15 C-15 14.34 -15 13.68 -15 13 C-10.52941176 9 -10.52941176 9 -8 9 C-8 8.34 -8 7.68 -8 7 C-4.53846154 4 -4.53846154 4 -2 4 C-2 3.34 -2 2.68 -2 2 C-1.34 2 -0.68 2 0 2 C0 1.34 0 0.68 0 0 Z " fill="#13C65B" transform="translate(248,231)"/>
<path d="M0 0 C3.42229969 1.49676889 5.82470213 3.47418977 8.5625 6 C9.43003906 6.7940625 10.29757812 7.588125 11.19140625 8.40625 C12.11824219 9.2621875 13.04507813 10.118125 14 11 C15.50847725 12.38746592 17.01850674 13.77316914 18.53100586 15.15625 C19.93994821 16.44506813 21.34506173 17.73806819 22.75 19.03125 C24.83478636 21.02256897 24.83478636 21.02256897 27 22 C27 22.66 27 23.32 27 24 C27.66 24 28.32 24 29 24 C29 24.66 29 25.32 29 26 C29.99 26.33 30.98 26.66 32 27 C31.34 28.32 30.68 29.64 30 31 C25.24889677 31 24.32868148 30.06537864 20.75 27.125 C19.85796875 26.40570313 18.9659375 25.68640625 18.046875 24.9453125 C17.37140625 24.30335938 16.6959375 23.66140625 16 23 C16 22.34 16 21.68 16 21 C15.34 21 14.68 21 14 21 C14 20.34 14 19.68 14 19 C13.4225 18.731875 12.845 18.46375 12.25 18.1875 C9.94449957 16.97070811 7.97943808 15.69666121 6 14 C6 13.34 6 12.68 6 12 C1.87851657 10.17339803 1.87851657 10.17339803 -2.375 10.875 C-2.91125 11.24625 -3.4475 11.6175 -4 12 C-4 12.66 -4 13.32 -4 14 C-9.47619048 19 -9.47619048 19 -12 19 C-12 19.66 -12 20.32 -12 21 C-12.66 21 -13.32 21 -14 21 C-14 21.66 -14 22.32 -14 23 C-14.78375 23.2475 -15.5675 23.495 -16.375 23.75 C-19.44548487 25.21213565 -19.6449201 26.01882422 -21 29 C-22.875 30.8125 -22.875 30.8125 -25 32 C-27.25 31.6875 -27.25 31.6875 -29 31 C-29.33 29.68 -29.66 28.36 -30 27 C-29.3503125 26.59652344 -28.700625 26.19304687 -28.03125 25.77734375 C-25.15003162 23.68312484 -23.09285811 21.90062791 -21 19 C-20.20966684 13.88091399 -20.45863816 9.13291223 -21 4 C-18.03 4 -15.06 4 -12 4 C-11.67 5.98 -11.34 7.96 -11 10 C-10.59007812 9.566875 -10.18015625 9.13375 -9.7578125 8.6875 C-9.21898437 8.130625 -8.68015625 7.57375 -8.125 7 C-7.59132812 6.443125 -7.05765625 5.88625 -6.5078125 5.3125 C-5 4 -5 4 -3 4 C-3 3.34 -3 2.68 -3 2 C-2.01 1.34 -1.02 0.68 0 0 Z " fill="#75D79C" transform="translate(249,220)"/>
<path d="M0 0 C4.22821733 -0.550681 5.67248279 -0.24726734 9.140625 2.37109375 C10.19149947 3.37840181 11.22776562 4.40113927 12.25 5.4375 C15.80602623 9.14460125 15.80602623 9.14460125 20 12 C20 12.66 20 13.32 20 14 C20.66 14 21.32 14 22 14 C22 14.66 22 15.32 22 16 C22.99 16.33 23.98 16.66 25 17 C24.34 18.32 23.68 19.64 23 21 C18.24889677 21 17.32868148 20.06537864 13.75 17.125 C12.85796875 16.40570313 11.9659375 15.68640625 11.046875 14.9453125 C10.03367187 13.98238281 10.03367187 13.98238281 9 13 C9 12.34 9 11.68 9 11 C8.34 11 7.68 11 7 11 C7 10.34 7 9.68 7 9 C6.01 8.67 5.02 8.34 4 8 C3.67 7.01 3.34 6.02 3 5 C2.34 4.67 1.68 4.34 1 4 C0.375 1.9375 0.375 1.9375 0 0 Z " fill="#43C679" transform="translate(256,230)"/>
<path d="M0 0 C3.60156104 2.05803488 6.88992126 4.24535883 10 7 C10 7.66 10 8.32 10 9 C10.66 9 11.32 9 12 9 C13.42917743 11.85835486 13.12980809 14.31257719 13.1328125 17.50390625 C13.13410156 18.80134766 13.13539063 20.09878906 13.13671875 21.43554688 C13.13357666 22.45056274 13.13357666 22.45056274 13.13037109 23.48608398 C13.12501202 25.55785415 13.13032518 27.62940839 13.13671875 29.70117188 C13.13542969 30.99732422 13.13414062 32.29347656 13.1328125 33.62890625 C13.13168457 34.82588135 13.13055664 36.02285645 13.12939453 37.25610352 C13 40 13 40 12 41 C9.46950598 41.07313567 6.96695163 41.09247527 4.4375 41.0625 C3.72658203 41.05798828 3.01566406 41.05347656 2.28320312 41.04882812 C0.52209987 41.03700864 -1.23896036 41.01907263 -3 41 C-3 36.71 -3 32.42 -3 28 C-6.96 28 -10.92 28 -15 28 C-15 31.96 -15 35.92 -15 40 C-15.33 40 -15.66 40 -16 40 C-16 35.71 -16 31.42 -16 27 C-11.38 27 -6.76 27 -2 27 C-2 30.96 -2 34.92 -2 39 C2.29 39 6.58 39 11 39 C11 29.43 11 19.86 11 10 C9.68 9.67 8.36 9.34 7 9 C7 8.34 7 7.68 7 7 C5.68 6.67 4.36 6.34 3 6 C3 5.01 3 4.02 3 3 C2.01 2.67 1.02 2.34 0 2 C0 1.34 0 0.68 0 0 Z " fill="#76D69B" transform="translate(259,239)"/>
<path d="M0 0 C3.23861303 1.44424635 5.61969163 3.25772247 8.25 5.625 C8.95640625 6.25664062 9.6628125 6.88828125 10.390625 7.5390625 C10.92171875 8.02117187 11.4528125 8.50328125 12 9 C11.67 9.66 11.34 10.32 11 11 C10.01 11 9.02 11 8 11 C8 11.99 8 12.98 8 14 C8.99 14.33 9.98 14.66 11 15 C10.67 15.66 10.34 16.32 10 17 C8 15.625 8 15.625 6 14 C6 13.34 6 12.68 6 12 C1.92667763 10.21194245 1.92667763 10.21194245 -2.3125 10.75 C-4.14294055 11.90877315 -4.14294055 11.90877315 -5 14 C-5 13.01 -5 12.02 -5 11 C-4.34 11 -3.68 11 -3 11 C-3 10.01 -3 9.02 -3 8 C-5.95638899 8.95882886 -7.64144799 9.50699098 -9.5 12.0625 C-11 14 -11 14 -13.6875 14.75 C-14.450625 14.8325 -15.21375 14.915 -16 15 C-14.83593677 13.83593677 -13.67129061 12.67245135 -12.50390625 11.51171875 C-11.4596661 10.46205398 -10.42652024 9.40128152 -9.40234375 8.33203125 C-7.97138652 6.85185191 -6.48847779 5.42232322 -5 4 C-4.34 4 -3.68 4 -3 4 C-3 3.34 -3 2.68 -3 2 C-2.01 1.34 -1.02 0.68 0 0 Z " fill="#5CCD8B" transform="translate(249,220)"/>
<path d="M0 0 C0.33 0.66 0.66 1.32 1 2 C0.34 2 -0.32 2 -1 2 C-1.33 3.32 -1.66 4.64 -2 6 C-2.66 6 -3.32 6 -4 6 C-4 15.9 -4 25.8 -4 36 C-0.04 36 3.92 36 8 36 C8 36.33 8 36.66 8 37 C5.68756208 37.02685412 3.3750373 37.04632841 1.0625 37.0625 C-0.22527344 37.07410156 -1.51304687 37.08570313 -2.83984375 37.09765625 C-6 37 -6 37 -7 36 C-7.10005826 33.87819862 -7.13081087 31.75306461 -7.1328125 29.62890625 C-7.13410156 28.33275391 -7.13539063 27.03660156 -7.13671875 25.70117188 C-7.13462402 25.0223999 -7.1325293 24.34362793 -7.13037109 23.64428711 C-7.1250313 21.57463211 -7.13031193 19.505195 -7.13671875 17.43554688 C-7.13542969 16.13810547 -7.13414062 14.84066406 -7.1328125 13.50390625 C-7.13168457 12.30580322 -7.13055664 11.1077002 -7.12939453 9.87329102 C-7 7 -7 7 -6 5 C-5.34 5 -4.68 5 -4 5 C-4 4.34 -4 3.68 -4 3 C-3.34 3 -2.68 3 -2 3 C-2 2.34 -2 1.68 -2 1 C-1.34 0.67 -0.68 0.34 0 0 Z " fill="#69D897" transform="translate(235,243)"/>
<path d="M0 0 C3.28899608 -0.57557431 5.33854193 -0.41963469 8.1796875 1.3828125 C12.30139552 4.77112051 12.30139552 4.77112051 14 7 C14.2265625 9.73828125 14.2265625 9.73828125 14 12 C11.69 11.67 9.38 11.34 7 11 C7 10.34 7 9.68 7 9 C6.01 8.67 5.02 8.34 4 8 C3.67 7.01 3.34 6.02 3 5 C2.34 4.67 1.68 4.34 1 4 C0.375 1.9375 0.375 1.9375 0 0 Z " fill="#38C571" transform="translate(256,230)"/>
<path d="M0 0 C1.32 0 2.64 0 4 0 C4 0.99 4 1.98 4 3 C3.34 3 2.68 3 2 3 C1.9175 3.5775 1.835 4.155 1.75 4.75 C0.7620384 7.71388479 -0.53822058 9.10091302 -3 11 C-5.125 10.6875 -5.125 10.6875 -7 10 C-7.99 10.495 -7.99 10.495 -9 11 C-9 9.68 -9 8.36 -9 7 C-7.88625 6.6596875 -7.88625 6.6596875 -6.75 6.3125 C-3.81163457 5.15968521 -3.81163457 5.15968521 -1.9375 2.375 C-1.298125 1.59125 -0.65875 0.8075 0 0 Z " fill="#30C46E" transform="translate(242,228)"/>
<path d="M0 0 C1.32 0 2.64 0 4 0 C4 0.66 4 1.32 4 2 C4.66 2 5.32 2 6 2 C6 2.66 6 3.32 6 4 C7.32 4.66 8.64 5.32 10 6 C10 6.99 10 7.98 10 9 C5.125 6.25 5.125 6.25 4 4 C1.47266765 3.34444881 1.47266765 3.34444881 -1 3 C-1 4.32 -1 5.64 -1 7 C-1.928125 7.12375 -1.928125 7.12375 -2.875 7.25 C-5.18437567 7.81258459 -5.18437567 7.81258459 -6.25 10.0625 C-6.4975 10.701875 -6.745 11.34125 -7 12 C-10 12 -10 12 -12 11 C-10.68 10.34 -9.36 9.68 -8 9 C-8 8.34 -8 7.68 -8 7 C-4.53846154 4 -4.53846154 4 -2 4 C-2 3.34 -2 2.68 -2 2 C-1.34 2 -0.68 2 0 2 C0 1.34 0 0.68 0 0 Z " fill="#4AC97D" transform="translate(248,231)"/>
<path d="M0 0 C2.31 0 4.62 0 7 0 C7 1.65 7 3.3 7 5 C6.34 5 5.68 5 5 5 C4.67 6.32 4.34 7.64 4 9 C2.68 9.33 1.36 9.66 0 10 C0 6.7 0 3.4 0 0 Z " fill="#1EC061" transform="translate(229,225)"/>
<path d="M0 0 C2.03833424 1.2739589 4.03852126 2.61061923 6 4 C6 4.66 6 5.32 6 6 C6.66 6.33 7.32 6.66 8 7 C5.69 6.67 3.38 6.34 1 6 C0.67 6.99 0.34 7.98 0 9 C-1.7074998 7.71937515 -3.37373596 6.38232443 -5 5 C-5 4.34 -5 3.68 -5 3 C-3.68 3 -2.36 3 -1 3 C-0.67 2.01 -0.34 1.02 0 0 Z " fill="#4EC780" transform="translate(270,238)"/>
<path d="M0 0 C1.32 0 2.64 0 4 0 C4 0.66 4 1.32 4 2 C4.66 2 5.32 2 6 2 C6 2.66 6 3.32 6 4 C7.32 4.66 8.64 5.32 10 6 C10 6.99 10 7.98 10 9 C5.125 6.25 5.125 6.25 4 4 C1.47266765 3.34444881 1.47266765 3.34444881 -1 3 C-1.33 3.66 -1.66 4.32 -2 5 C-2 4.01 -2 3.02 -2 2 C-1.34 2 -0.68 2 0 2 C0 1.34 0 0.68 0 0 Z " fill="#63CB90" transform="translate(248,231)"/>
<path d="M0 0 C2.375 -0.1875 2.375 -0.1875 5 0 C5.66 0.99 6.32 1.98 7 3 C5.68 3.33 4.36 3.66 3 4 C3 4.99 3 5.98 3 7 C3.99 7.33 4.98 7.66 6 8 C5.67 8.66 5.34 9.32 5 10 C3.0625 8.9375 3.0625 8.9375 1 7 C0.25 3.3125 0.25 3.3125 0 0 Z " fill="#4AC87F" transform="translate(254,227)"/>
<path d="M0 0 C3.60156104 2.05803488 6.88992126 4.24535883 10 7 C10 7.66 10 8.32 10 9 C10.66 9.33 11.32 9.66 12 10 C10.35 9.67 8.7 9.34 7 9 C7 8.34 7 7.68 7 7 C5.68 6.67 4.36 6.34 3 6 C3 5.01 3 4.02 3 3 C2.01 2.67 1.02 2.34 0 2 C0 1.34 0 0.68 0 0 Z " fill="#62D093" transform="translate(259,239)"/>
<path d="M0 0 C0.66 0.33 1.32 0.66 2 1 C0.73786958 4.78639125 -0.65345351 5.04104596 -4 7 C-4.99 8.485 -4.99 8.485 -6 10 C-8.625 10.6875 -8.625 10.6875 -11 11 C-7.33333333 7.33333333 -3.66666667 3.66666667 0 0 Z " fill="#73D69C" transform="translate(244,224)"/>
<path d="M0 0 C0.6875 2.0625 0.6875 2.0625 1 4 C-4.75 4.125 -4.75 4.125 -7 3 C-6.67 2.01 -6.34 1.02 -6 0 C-3 -1 -3 -1 0 0 Z " fill="#18C45F" transform="translate(252,224)"/>
<path d="M0 0 C0.66 0 1.32 0 2 0 C2 1.98 2 3.96 2 6 C0.68 6.33 -0.64 6.66 -2 7 C-2.33 5.68 -2.66 4.36 -3 3 C-2.01 2.67 -1.02 2.34 0 2 C0 1.34 0 0.68 0 0 Z " fill="#26C16A" transform="translate(224,244)"/>
<path d="M0 0 C1.32 0 2.64 0 4 0 C4 0.99 4 1.98 4 3 C1 5 1 5 -3 5 C-1.125 1.125 -1.125 1.125 0 0 Z " fill="#17C35B" transform="translate(242,228)"/>
<path d="M0 0 C0.66 0.33 1.32 0.66 2 1 C2 2.32 2 3.64 2 5 C1.01 5 0.02 5 -1 5 C-1.33 5.99 -1.66 6.98 -2 8 C-2.66 6.68 -3.32 5.36 -4 4 C-2.68 2.68 -1.36 1.36 0 0 Z " fill="#1DC05F" transform="translate(230,238)"/>
<path d="M0 0 C2.31 0.66 4.62 1.32 7 2 C6.67 3.32 6.34 4.64 6 6 C4.125 5.8125 4.125 5.8125 2 5 C0.75 2.4375 0.75 2.4375 0 0 Z " fill="#19C15C" transform="translate(263,236)"/>
<path d="M0 0 C0.99 0.495 0.99 0.495 2 1 C1.67 2.98 1.34 4.96 1 7 C2.98 7.495 2.98 7.495 5 8 C4.34 8.66 3.68 9.32 3 10 C2.01 10 1.02 10 0 10 C0 6.7 0 3.4 0 0 Z " fill="#44BF78" transform="translate(229,225)"/>
<path d="M0 0 C0.33 0.66 0.66 1.32 1 2 C0.34 2 -0.32 2 -1 2 C-1.33 3.32 -1.66 4.64 -2 6 C-2.99 6 -3.98 6 -5 6 C-5.33 6.66 -5.66 7.32 -6 8 C-6 7.01 -6 6.02 -6 5 C-5.34 5 -4.68 5 -4 5 C-4 4.34 -4 3.68 -4 3 C-3.34 3 -2.68 3 -2 3 C-2 2.34 -2 1.68 -2 1 C-1.34 0.67 -0.68 0.34 0 0 Z " fill="#74D19B" transform="translate(235,243)"/>
</svg>