<svg xmlns="http://www.w3.org/2000/svg" version="1.1" viewBox="222.83 223.28 57.33 56.72">
<path d="M0 0 C4.00490174 4.4626048 6.22731059 9.08867508 6.125 15.125 C4.21149625 21.88604658 1.68210187 25.28602303 -3.8125 29.4375 C3.1175 30.9225 3.1175 30.9225 10.1875 32.4375 C10.1875 33.0975 10.1875 33.7575 10.1875 34.4375 C10.785625 34.64375 11.38375 34.85 12 35.0625 C15.23222526 37.09418445 15.92009475 38.82539504 17.1875 42.4375 C17.1875 46.0675 17.1875 49.6975 17.1875 53.4375 C-1.2925 53.4375 -19.7725 53.4375 -38.8125 53.4375 C-40.82651472 49.40947057 -39.83511841 44.68222335 -38.8125 40.4375 C-36.27992818 36.0909649 -33.34735228 33.17295005 -28.8125 31 C-25.48669875 30.37641227 -22.17240771 29.84068893 -18.8125 29.4375 C-18.8125 28.7775 -18.8125 28.1175 -18.8125 27.4375 C-19.451875 27.334375 -20.09125 27.23125 -20.75 27.125 C-21.430625 26.898125 -22.11125 26.67125 -22.8125 26.4375 C-23.1425 25.4475 -23.4725 24.4575 -23.8125 23.4375 C-24.4725 23.4375 -25.1325 23.4375 -25.8125 23.4375 C-28.18590997 18.83901819 -28.37635953 14.49433548 -27.8125 9.4375 C-26.02381297 4.27018192 -23.28219681 1.53190548 -18.8125 -1.5625 C-12.05697854 -4.49414139 -6.29367705 -3.49648725 0 0 Z " fill="#12C75B" transform="translate(262.8125,226.5625)"/>
<path d="M0 0 C4.00490174 4.4626048 6.22731059 9.08867508 6.125 15.125 C4.21149625 21.88604658 1.68210187 25.28602303 -3.8125 29.4375 C-0.3475 29.9325 -0.3475 29.9325 3.1875 30.4375 C3.1875 30.7675 3.1875 31.0975 3.1875 31.4375 C-6.3825 31.4375 -15.9525 31.4375 -25.8125 31.4375 C-25.8125 31.1075 -25.8125 30.7775 -25.8125 30.4375 C-22.3475 29.9425 -22.3475 29.9425 -18.8125 29.4375 C-18.8125 28.7775 -18.8125 28.1175 -18.8125 27.4375 C-19.451875 27.334375 -20.09125 27.23125 -20.75 27.125 C-21.430625 26.898125 -22.11125 26.67125 -22.8125 26.4375 C-23.1425 25.4475 -23.4725 24.4575 -23.8125 23.4375 C-24.4725 23.4375 -25.1325 23.4375 -25.8125 23.4375 C-28.18590997 18.83901819 -28.37635953 14.49433548 -27.8125 9.4375 C-26.02381297 4.27018192 -23.28219681 1.53190548 -18.8125 -1.5625 C-12.05697854 -4.49414139 -6.29367705 -3.49648725 0 0 Z " fill="#1FC963" transform="translate(262.8125,226.5625)"/>
<path d="M0 0 C0 0.66 0 1.32 0 2 C-1.65 2 -3.3 2 -5 2 C-5.33 3.65 -5.66 5.3 -6 7 C-7.65 7.33 -9.3 7.66 -11 8 C-11.33 11.96 -11.66 15.92 -12 20 C5.16 19.67 22.32 19.34 40 19 C39.67 14.71 39.34 10.42 39 6 C36.525 5.01 36.525 5.01 34 4 C32.33333333 3.33333333 30.66666667 2.66666667 29 2 C29 1.34 29 0.68 29 0 C31.31 0.33 33.62 0.66 36 1 C36 1.66 36 2.32 36 3 C36.598125 3.20625 37.19625 3.4125 37.8125 3.625 C41.04472526 5.65668445 41.73259475 7.38789504 43 11 C43 14.63 43 18.26 43 22 C24.52 22 6.04 22 -13 22 C-15.01216397 17.97567205 -14.03136231 13.23941193 -13 9 C-10.7387339 5.24902841 -8.15405982 1.72734487 -3.89453125 0.2890625 C-2 0 -2 0 0 0 Z " fill="#32BA6A" transform="translate(237,258)"/>
<path d="M0 0 C0 0.66 0 1.32 0 2 C-1.65 2 -3.3 2 -5 2 C-5.33 3.65 -5.66 5.3 -6 7 C-7.65 7.33 -9.3 7.66 -11 8 C-11.33 11.96 -11.66 15.92 -12 20 C-10.02 20.33 -8.04 20.66 -6 21 C-6 21.33 -6 21.66 -6 22 C-8.31 22 -10.62 22 -13 22 C-15.01216397 17.97567205 -14.03136231 13.23941193 -13 9 C-10.7387339 5.24902841 -8.15405982 1.72734487 -3.89453125 0.2890625 C-2 0 -2 0 0 0 Z " fill="#77D19D" transform="translate(237,258)"/>
<path d="M0 0 C2.31 0.33 4.62 0.66 7 1 C7 1.66 7 2.32 7 3 C7.598125 3.20625 8.19625 3.4125 8.8125 3.625 C12.04472526 5.65668445 12.73259475 7.38789504 14 11 C14.2380325 14.68190702 14.17697006 18.31640091 14 22 C13.34 21.67 12.68 21.34 12 21 C11.62109375 18.890625 11.62109375 18.890625 11.4375 16.25 C11.35886719 15.34765625 11.28023438 14.4453125 11.19921875 13.515625 C11.13347656 12.68546875 11.06773437 11.8553125 11 11 C10.89660605 8.1150169 10.89660605 8.1150169 10 6 C7.73398135 4.70957237 7.73398135 4.70957237 5 4 C3.33333333 3.33333333 1.66666667 2.66666667 0 2 C0 1.34 0 0.68 0 0 Z " fill="#69D193" transform="translate(266,258)"/>
<path d="M0 0 C3.81201332 3.41074876 5.9866344 5.93317198 7 11 C6.73288425 15.98616058 5.58361332 19.72710104 3 24 C2.01 24.66 1.02 25.32 0 26 C-0.33 24.68 -0.66 23.36 -1 22 C0.32 22 1.64 22 3 22 C3.19401633 20.18818595 3.38004375 18.37551468 3.5625 16.5625 C3.66691406 15.55316406 3.77132813 14.54382813 3.87890625 13.50390625 C3.91886719 12.67761719 3.95882813 11.85132813 4 11 C3.67 10.67 3.34 10.34 3 10 C2.95936168 8.33382885 2.957279 6.66611905 3 5 C2.34 5 1.68 5 1 5 C0.67 3.35 0.34 1.7 0 0 Z " fill="#55C985" transform="translate(262,227)"/>
<path d="M0 0 C1.3357457 3.77371512 0.72408671 6.85831347 0.0625 10.75 C-0.13214844 11.92046875 -0.32679688 13.0909375 -0.52734375 14.296875 C-0.68332031 15.18890625 -0.83929688 16.0809375 -1 17 C-3.38370909 14.61629091 -3.29588602 14.0063401 -3.3125 10.75 C-3.23737929 6.5227526 -2.23998949 3.63998292 0 0 Z " fill="#6CCF97" transform="translate(238,230)"/>
<path d="M0 0 C1.32 0 2.64 0 4 0 C4 0.66 4 1.32 4 2 C7.96 2 11.92 2 16 2 C16 1.34 16 0.68 16 0 C17.65 0 19.3 0 21 0 C19.98046875 1.48828125 19.98046875 1.48828125 18 3 C15.35003674 3.2172101 12.94923442 3.28351554 10.3125 3.1875 C9.61060547 3.17396484 8.90871094 3.16042969 8.18554688 3.14648438 C6.45670171 3.11120182 4.72825235 3.05739583 3 3 C3 2.34 3 1.68 3 1 C2.01 0.67 1.02 0.34 0 0 Z " fill="#5ACB8B" transform="translate(241,253)"/>
<path d="M0 0 C0.97582031 0.00902344 1.95164063 0.01804687 2.95703125 0.02734375 C3.69308594 0.03894531 4.42914063 0.05054688 5.1875 0.0625 C4.8575 0.7225 4.5275 1.3825 4.1875 2.0625 C-0.93120643 3.47014427 -5.65077917 2.8080819 -10.8125 2.0625 C-10.8125 1.7325 -10.8125 1.4025 -10.8125 1.0625 C-7.13862505 0.20951624 -3.7677607 -0.04539471 0 0 Z " fill="#1AC35F" transform="translate(242.8125,258.9375)"/>
<path d="M0 0 C0 0.66 0 1.32 0 2 C-1.65 2 -3.3 2 -5 2 C-5.33 3.65 -5.66 5.3 -6 7 C-7.32 7.33 -8.64 7.66 -10 8 C-9.43850643 4.74333728 -8.62770014 3.04376677 -6 1 C-3.87733361 0.29244454 -2.23416175 0 0 0 Z " fill="#52C985" transform="translate(237,258)"/>
<path d="M0 0 C3.53586014 3.17320782 5.58578031 5.16743695 6 10 C4 9 4 9 3 6 C2.484375 5.505 1.96875 5.01 1.4375 4.5 C0 3 0 3 0 0 Z " fill="#71D49B" transform="translate(262,227)"/>
</svg>