<svg xmlns="http://www.w3.org/2000/svg" version="1.1" viewBox="204.88 218 73.12 67">
<path d="M0 0 C9.9 0 19.8 0 30 0 C30 22.11 30 44.22 30 67 C20.1 67 10.2 67 0 67 C0 44.89 0 22.78 0 0 Z " fill="#00BE61" transform="translate(227,218)"/>
<path d="M0 0 C5.94 0 11.88 0 18 0 C18 16.17 18 32.34 18 49 C11.73 49 5.46 49 -1 49 C-1.02464247 42.18237576 -1.04283244 35.3647772 -1.05493164 28.54711914 C-1.05997333 26.22582549 -1.06680651 23.90453503 -1.07543945 21.58325195 C-1.08751225 18.25471205 -1.09322979 14.92621398 -1.09765625 11.59765625 C-1.10281754 10.55287613 -1.10797882 9.50809601 -1.11329651 8.43165588 C-1.11337204 7.47073532 -1.11344757 6.50981476 -1.11352539 5.51977539 C-1.115746 4.66928116 -1.11796661 3.81878693 -1.12025452 2.94252014 C-1 1 -1 1 0 0 Z " fill="#1AC270" transform="translate(206,236)"/>
<path d="M0 0 C6.27 0 12.54 0 19 0 C19 13.53 19 27.06 19 41 C12.73 41 6.46 41 0 41 C0 27.47 0 13.94 0 0 Z " fill="#01BE62" transform="translate(259,244)"/>
<path d="M0 0 C9.9 0 19.8 0 30 0 C30 22.11 30 44.22 30 67 C20.1 67 10.2 67 0 67 C0 44.89 0 22.78 0 0 Z M3 3 C1.65950473 5.68099053 1.8801948 7.73311206 1.88647461 10.73486328 C1.88655014 11.93595734 1.88662567 13.13705139 1.88670349 14.37454224 C1.89186478 15.67664642 1.89702606 16.97875061 1.90234375 18.3203125 C1.90420862 19.66266833 1.9056322 21.00502484 1.90663147 22.34738159 C1.91045122 25.88195675 1.92027688 29.41649087 1.93133545 32.9510498 C1.94156122 36.55720464 1.94613159 40.1633661 1.95117188 43.76953125 C1.96189963 50.84637256 1.97949205 57.92317929 2 65 C10.58 65 19.16 65 28 65 C28 44.54 28 24.08 28 3 C19.75 3 11.5 3 3 3 Z " fill="#5ACA96" transform="translate(227,218)"/>
<path d="M0 0 C6.27 0 12.54 0 19 0 C19 13.53 19 27.06 19 41 C12.73 41 6.46 41 0 41 C0 27.47 0 13.94 0 0 Z M2 2 C2 14.21 2 26.42 2 39 C7.28 39 12.56 39 18 39 C18 26.79 18 14.58 18 2 C12.72 2 7.44 2 2 2 Z " fill="#5BCC96" transform="translate(259,244)"/>
</svg>