<svg xmlns="http://www.w3.org/2000/svg" version="1.1" viewBox="221.18 212 57.58 76.31">
<path d="M0 0 C5.28 0 10.56 0 16 0 C16 1.32 16 2.64 16 4 C17.2065625 4.185625 17.2065625 4.185625 18.4375 4.375 C19.7059375 4.684375 19.7059375 4.684375 21 5 C21.495 5.99 21.495 5.99 22 7 C21.3724092 8.60802067 20.67328787 10.18852092 19.9375 11.75 C18.29467636 15.74011415 18.29467636 15.74011415 18.3125 20 C20.44531587 23.79167266 22.924041 27.2562259 25.5390625 30.73046875 C27 33 27 33 27 36 C27.66 36 28.32 36 29 36 C34.38165866 46.32399824 38.53894015 56.1561143 36 68 C32.69408922 72.04055762 30.0377901 73.71375572 25 75 C24.40276123 75.1762793 23.80552246 75.35255859 23.19018555 75.53417969 C18.18252022 76.59923659 12.91046692 76.22834109 7.8125 76.25 C6.02102539 76.2809375 6.02102539 76.2809375 4.19335938 76.3125 C-4.26428535 76.34973784 -11.0593551 75.87753966 -18.01171875 70.80078125 C-20.51917902 67.26866138 -20.88104601 64.39133593 -20.8125 60.1875 C-20.80549072 59.44483887 -20.79848145 58.70217773 -20.79125977 57.93701172 C-20.36857453 49.19288438 -16.50719743 42.31522131 -12 35 C-11.34515625 33.93265625 -10.6903125 32.8653125 -10.015625 31.765625 C-7.70650296 28.11444913 -5.39336476 24.52823267 -2.8125 21.0625 C-1.4048963 15.75691682 -3.99216844 10.94358528 -6 6 C-3 4 -3 4 0 4 C0 2.68 0 1.36 0 0 Z M5 18 C5 18.99 5 19.98 5 21 C6.98 21 8.96 21 11 21 C11 20.01 11 19.02 11 18 C9.02 18 7.04 18 5 18 Z M0.1875 38.3125 C-1.16955601 40.00225863 -1.16955601 40.00225863 -1.5 42.4375 C-1.20138849 45.14886131 -1.20138849 45.14886131 0.9375 47.125 C4.78575415 49.48107397 8.68241967 50.75834291 13 52 C12.67 53.65 12.34 55.3 12 57 C9.33438378 57.98726527 8.09873015 58.0275526 5.3125 57.25 C3 56 3 56 2 53 C1.01 53 0.02 53 -1 53 C-0.73852205 56.22489472 -0.39459008 57.6300718 2 59.875 C6.1063974 61.41489902 9.79634074 61.24377933 14 60 C15.8210248 58.76253818 15.8210248 58.76253818 17 57 C17.2503577 53.37464024 17.2503577 53.37464024 17 50 C16.34 50 15.68 50 15 50 C15 49.34 15 48.68 15 48 C11.37 46.68 7.74 45.36 4 44 C4 42.02 4 40.04 4 38 C6.3431213 38.25561323 8.67843403 38.59270772 11 39 C11.33 39.66 11.66 40.32 12 41 C13.32 40.67 14.64 40.34 16 40 C14.30378653 37.07874347 13.41298064 36.12568976 10.125 35.125 C5.96981458 34.95879258 3.52403702 35.89638699 0.1875 38.3125 Z " fill="#06BD64" transform="translate(242,212)"/>
<path d="M0 0 C5.28 0 10.56 0 16 0 C16 1.32 16 2.64 16 4 C17.2065625 4.185625 17.2065625 4.185625 18.4375 4.375 C19.7059375 4.684375 19.7059375 4.684375 21 5 C21.495 5.99 21.495 5.99 22 7 C21.3724092 8.60802067 20.67328787 10.18852092 19.9375 11.75 C18.29467636 15.74011415 18.29467636 15.74011415 18.3125 20 C20.44531587 23.79167266 22.924041 27.2562259 25.5390625 30.73046875 C27 33 27 33 27 36 C27.66 36 28.32 36 29 36 C29.495 37.98 29.495 37.98 30 40 C29.34 40 28.68 40 28 40 C28 39.01 28 38.02 28 37 C25.525 37.495 25.525 37.495 23 38 C22.67 37.34 22.34 36.68 22 36 C21.34 36 20.68 36 20 36 C19.505 36.99 19.505 36.99 19 38 C18.67 38 18.34 38 18 38 C18 39.65 18 41.3 18 43 C16.68 43.66 15.36 44.32 14 45 C14.61875 45.474375 15.2375 45.94875 15.875 46.4375 C19.05407198 50.2710868 20 55.03688502 20 60 C19.278125 60.12375 18.55625 60.2475 17.8125 60.375 C14.99786251 61.000475 12.5800738 61.7099631 10 63 C9.67 63.99 9.34 64.98 9 66 C5.20411134 65.45773019 3.52788007 63.79872437 1 61 C1.33 60.34 1.66 59.68 2 59 C2.59167969 59.10699219 3.18335938 59.21398437 3.79296875 59.32421875 C7.60031048 59.90184156 10.30185728 60.23271424 14 59 C16.78367625 56.21632375 16.78267432 53.8394204 17 50 C16.34 50 15.68 50 15 50 C15 49.34 15 48.68 15 48 C11.37 47.01 7.74 46.02 4 45 C3 40 3 40 4 38 C6.31 38 8.62 38 11 38 C11.33 38.99 11.66 39.98 12 41 C13.485 40.505 13.485 40.505 15 40 C13.30666902 36.76080804 13.30666902 36.76080804 10.1875 36.1875 C6.75928438 35.98584026 5.0096433 36.41157715 2 38 C-0.35953094 40.35953094 -0.49141413 41.77895617 -1 45 C-1.33 45 -1.66 45 -2 45 C-2.07427838 41.65747276 -2.06546953 39.1964086 -1 36 C-1.495 34.515 -1.495 34.515 -2 33 C-7.38554376 35.891052 -10.77462676 38.01930942 -13 44 C-13.99 43.67 -14.98 43.34 -16 43 C-13.83693956 38.28257171 -11.60336346 33.75018267 -8.55859375 29.53515625 C-3.79499194 23.45451503 -3.79499194 23.45451503 -2.0546875 16.24609375 C-2.84010844 13.97585322 -3.80854505 12.07852361 -5 10 C-5.37330523 8.67730121 -5.71897541 7.34533047 -6 6 C-3 4 -3 4 0 4 C0 2.68 0 1.36 0 0 Z M5 18 C5 18.99 5 19.98 5 21 C6.98 21 8.96 21 11 21 C11 20.01 11 19.02 11 18 C9.02 18 7.04 18 5 18 Z " fill="#0ABD66" transform="translate(242,212)"/>
<path d="M0 0 C0.66 0.66 1.32 1.32 2 2 C2.66 1.67 3.32 1.34 4 1 C4.66 1.33 5.32 1.66 6 2 C6 2.99 6 3.98 6 5 C6.99 5 7.98 5 9 5 C14.07231694 14.56494052 14.60098801 22.47603221 14 33 C12.5459375 33.680625 12.5459375 33.680625 11.0625 34.375 C7.92920418 35.65786221 7.92920418 35.65786221 7 38 C1.49001859 39.43620827 -4.22405698 39.11227118 -9.875 39.0625 C-11.33679688 39.05573242 -11.33679688 39.05573242 -12.828125 39.04882812 C-15.21881434 39.03710906 -17.6093744 39.02070219 -20 39 C-19.67 38.34 -19.34 37.68 -19 37 C-18.67 37 -18.34 37 -18 37 C-18.57344937 34.13275314 -18.8614515 33.1385485 -21 31 C-20.67 30.34 -20.34 29.68 -20 29 C-20.99 28.67 -21.98 28.34 -23 28 C-22.67 27.34 -22.34 26.68 -22 26 C-17.125 27.75 -17.125 27.75 -16 30 C-15.01 30 -14.02 30 -13 30 C-12.38125 29.38125 -11.7625 28.7625 -11.125 28.125 C-8.82538954 25.82538954 -7.10439766 24.89864143 -4 24 C-3.34 24.33 -2.68 24.66 -2 25 C-2.144375 24.37351562 -2.28875 23.74703125 -2.4375 23.1015625 C-2.623125 22.28429687 -2.80875 21.46703125 -3 20.625 C-3.185625 19.81289063 -3.37125 19.00078125 -3.5625 18.1640625 C-4 16 -4 16 -4 14 C-4.66 13.67 -5.32 13.34 -6 13 C-7.03145371 11.69084721 -8.03542166 10.35917857 -9 9 C-7.35 8.67 -5.7 8.34 -4 8 C-4.33 6.02 -4.66 4.04 -5 2 C-3.35 1.34 -1.7 0.68 0 0 Z " fill="#07BE65" transform="translate(264,247)"/>
<path d="M0 0 C5.28 0 10.56 0 16 0 C16 1.98 16 3.96 16 6 C16.66 6.33 17.32 6.66 18 7 C17.34 7 16.68 7 16 7 C16.33 7.99 16.66 8.98 17 10 C16.67 10.33 16.34 10.66 16 11 C16 12.0725 16 13.145 16 14.25 C16 17.40638287 15.88637874 19.98631227 15 23 C14.34 23.33 13.68 23.66 13 24 C12.34 24.99 11.68 25.98 11 27 C10.34 26.67 9.68 26.34 9 26 C9 25.34 9 24.68 9 24 C9.99 23.34 10.98 22.68 12 22 C12.82432642 18.48055874 12.82432642 18.48055874 13 15 C12.67 14.67 12.34 14.34 12 14 C12 14.99 12 15.98 12 17 C10.40012764 17.27615058 8.794667 17.52007625 7.1875 17.75 C6.29417969 17.88921875 5.40085938 18.0284375 4.48046875 18.171875 C2 18 2 18 0.30859375 16.140625 C-0.33916016 15.08101562 -0.33916016 15.08101562 -1 14 C-1.70125 13.34 -2.4025 12.68 -3.125 12 C-5.07015368 9.9251694 -5.60438599 8.7692981 -6 6 C-3 4 -3 4 0 4 C0 2.68 0 1.36 0 0 Z " fill="#02BD61" transform="translate(242,212)"/>
<path d="M0 0 C2.475 0.99 2.475 0.99 5 2 C5 3.65 5 5.3 5 7 C3.02 7.99 3.02 7.99 1 9 C1.61875 9.474375 2.2375 9.94875 2.875 10.4375 C6.05407198 14.2710868 7 19.03688502 7 24 C6.278125 24.12375 5.55625 24.2475 4.8125 24.375 C1.99786251 25.000475 -0.4199262 25.7099631 -3 27 C-3.33 27.99 -3.66 28.98 -4 30 C-7.79588866 29.45773019 -9.47211993 27.79872437 -12 25 C-11.67 24.34 -11.34 23.68 -11 23 C-10.40832031 23.10699219 -9.81664062 23.21398437 -9.20703125 23.32421875 C-5.39968952 23.90184156 -2.69814272 24.23271424 1 23 C3.78367625 20.21632375 3.78267432 17.8394204 4 14 C3.34 14 2.68 14 2 14 C2 13.34 2 12.68 2 12 C-1.63 11.01 -5.26 10.02 -9 9 C-10 4 -10 4 -9 2 C-6.69 2 -4.38 2 -2 2 C-1.67 2.99 -1.34 3.98 -1 5 C-0.01 4.67 0.98 4.34 2 4 C1.34 2.68 0.68 1.36 0 0 Z " fill="#28B574" transform="translate(255,248)"/>
<path d="M0 0 C0.639375 0.433125 1.27875 0.86625 1.9375 1.3125 C5.80734715 3.44486476 9.78894498 4.70640794 14 6 C14.33 7.65 14.66 9.3 15 11 C13.4375 12.625 13.4375 12.625 11 14 C7.25 13.1875 7.25 13.1875 4 12 C3.67 10.68 3.34 9.36 3 8 C2.01 8 1.02 8 0 8 C0.66 9.98 1.32 11.96 2 14 C0.68 13.67 -0.64 13.34 -2 13 C-2 11.02 -2 9.04 -2 7 C-0.35 6.67 1.3 6.34 3 6 C3 5.34 3 4.68 3 4 C2.34 4 1.68 4 1 4 C0.67 2.68 0.34 1.36 0 0 Z " fill="#38BD81" transform="translate(241,257)"/>
<path d="M0 0 C2.875 0.25 2.875 0.25 6 1 C7.86877588 3.82841755 8.33039316 6.41112252 8.625 9.75 C8.69976562 10.54921875 8.77453125 11.3484375 8.8515625 12.171875 C8.92503906 13.07679688 8.92503906 13.07679688 9 14 C8.278125 14.12375 7.55625 14.2475 6.8125 14.375 C3.99786251 15.000475 1.5800738 15.7099631 -1 17 C-1.33 17.99 -1.66 18.98 -2 20 C-5.79588866 19.45773019 -7.47211993 17.79872437 -10 15 C-9.67 14.34 -9.34 13.68 -9 13 C-8.40832031 13.10699219 -7.81664062 13.21398437 -7.20703125 13.32421875 C-3.39968952 13.90184156 -0.69814272 14.23271424 3 13 C5.78367625 10.21632375 5.78267432 7.8394204 6 4 C5.34 4 4.68 4 4 4 C4 3.34 4 2.68 4 2 C2.68 1.34 1.36 0.68 0 0 Z " fill="#4DC78D" transform="translate(253,258)"/>
<path d="M0 0 C-1.36983503 3.16115776 -1.9890638 3.9927092 -5 6 C-12.70992592 8.26157827 -20.07103726 8.23546147 -28.0625 8.125 C-29.30966797 8.11597656 -30.55683594 8.10695313 -31.84179688 8.09765625 C-34.89473504 8.07426209 -37.94726306 8.04148174 -41 8 C-41 7.67 -41 7.34 -41 7 C-36.66415841 6.1888339 -32.4774902 5.82009925 -28.0703125 5.68359375 C-26.78125 5.64169922 -25.4921875 5.59980469 -24.1640625 5.55664062 C-22.81771091 5.51683972 -21.47135671 5.47712727 -20.125 5.4375 C-18.75519667 5.39424817 -17.38540479 5.35063188 -16.015625 5.30664062 C-12.67717843 5.20084478 -9.338661 5.09875628 -6 5 C-5.71125 4.360625 -5.4225 3.72125 -5.125 3.0625 C-3.72314735 0.49243681 -2.91896073 0 0 0 Z " fill="#55BE8E" transform="translate(277,280)"/>
<path d="M0 0 C1.875 0.25 1.875 0.25 4 1 C4.66 2.32 5.32 3.64 6 5 C8.97 5 11.94 5 15 5 C15 4.01 15 3.02 15 2 C15.66 2.33 16.32 2.66 17 3 C15.125 8.875 15.125 8.875 14 10 C11.32461486 10.04246643 8.67290614 10.04919459 6 10 C3.84365964 10 2.07553648 10.4465236 0 11 C0.185625 10.29875 0.37125 9.5975 0.5625 8.875 C1.05156976 5.66111302 0.66231558 3.16439664 0 0 Z M8 6 C8 6.99 8 7.98 8 9 C9.98 9 11.96 9 14 9 C14 8.01 14 7.02 14 6 C12.02 6 10.04 6 8 6 Z " fill="#3EC583" transform="translate(239,224)"/>
<path d="M0 0 C3.73487777 0.4979837 5.81237635 0.87491756 9 3 C8.8125 5.375 8.8125 5.375 8 8 C5.625 9.4375 5.625 9.4375 3 10 C2.01 9.34 1.02 8.68 0 8 C0.66 8 1.32 8 2 8 C2 5.69 2 3.38 2 1 C1.34 0.67 0.68 0.34 0 0 Z " fill="#4BBD8A" transform="translate(247,261)"/>
<path d="M0 0 C2.4375 0.375 2.4375 0.375 5 1 C5.33 1.66 5.66 2.32 6 3 C5.22265625 5.2421875 5.22265625 5.2421875 4.0625 7.875 C2.52033258 11.37754973 2 13.06256737 2 17 C1.34 17 0.68 17 0 17 C-0.19601608 15.25093341 -0.38147403 13.50068154 -0.5625 11.75 C-0.66691406 10.77546875 -0.77132813 9.8009375 -0.87890625 8.796875 C-0.99070215 6.21475036 -0.73061437 4.44620515 0 2 C0 1.34 0 0.68 0 0 Z " fill="#35C481" transform="translate(258,216)"/>
<path d="M0 0 C5.28 0 10.56 0 16 0 C15.67 1.32 15.34 2.64 15 4 C15 3.01 15 2.02 15 1 C10.71 1 6.42 1 2 1 C1.67 2.98 1.34 4.96 1 7 C-0.32 7 -1.64 7 -3 7 C-3 8.65 -3 10.3 -3 12 C-5.1385485 9.8614515 -5.42655063 8.86724686 -6 6 C-3 4 -3 4 0 4 C0 2.68 0 1.36 0 0 Z " fill="#53C491" transform="translate(242,212)"/>
<path d="M0 0 C2.31 0 4.62 0 7 0 C6.01 0.495 6.01 0.495 5 1 C5 3.31 5 5.62 5 8 C3.35 7.67 1.7 7.34 0 7 C-1.125 2.25 -1.125 2.25 0 0 Z " fill="#9CF0CB" transform="translate(246,250)"/>
<path d="M0 0 C4.29 0 8.58 0 13 0 C12.67 0.99 12.34 1.98 12 3 C12 2.34 12 1.68 12 1 C11.37351563 1.08378906 10.74703125 1.16757813 10.1015625 1.25390625 C9.28429687 1.35574219 8.46703125 1.45757812 7.625 1.5625 C6.81289062 1.66691406 6.00078125 1.77132812 5.1640625 1.87890625 C3 2 3 2 1 1 C1.061875 2.423125 1.061875 2.423125 1.125 3.875 C0.95915066 8.02123355 -1.20168773 9.20168773 -4 12 C-5 11 -5 11 -5.0625 8.4375 C-5.041875 7.633125 -5.02125 6.82875 -5 6 C-3.68 6 -2.36 6 -1 6 C-0.67 4.02 -0.34 2.04 0 0 Z " fill="#0CB768" transform="translate(244,213)"/>
<path d="M0 0 C0.66 0.33 1.32 0.66 2 1 C2 1.99 2 2.98 2 4 C4.31 4.33 6.62 4.66 9 5 C9 5.66 9 6.32 9 7 C7.35492782 7.19406478 5.70890406 7.38007935 4.0625 7.5625 C2.68771484 7.71912109 2.68771484 7.71912109 1.28515625 7.87890625 C0.53105469 7.91886719 -0.22304687 7.95882812 -1 8 C-2 7 -2 7 -2.1875 4.5625 C-2 2 -2 2 0 0 Z " fill="#0BB767" transform="translate(245,222)"/>
<path d="M0 0 C0.66 0.99 1.32 1.98 2 3 C1.34 3 0.68 3 0 3 C0 3.99 0 4.98 0 6 C0.66 6.33 1.32 6.66 2 7 C0.68 7.33 -0.64 7.66 -2 8 C-2 13.28 -2 18.56 -2 24 C-2.33 24 -2.66 24 -3 24 C-3.08164159 21.3118751 -3.14079668 18.626277 -3.1875 15.9375 C-3.21263672 15.18533203 -3.23777344 14.43316406 -3.26367188 13.65820312 C-3.33282151 8.33368144 -2.40669334 4.75653566 0 0 Z " fill="#58CA93" transform="translate(225,256)"/>
<path d="M0 0 C2.9375 1.5625 2.9375 1.5625 6 4 C6.875 7.75 6.875 7.75 7 11 C4 9 4 9 3.3125 6.375 C3.209375 5.59125 3.10625 4.8075 3 4 C2.34 4 1.68 4 1 4 C0.67 2.68 0.34 1.36 0 0 Z " fill="#28BB76" transform="translate(241,257)"/>
<path d="M0 0 C1.65 0.33 3.3 0.66 5 1 C5.33 2.32 5.66 3.64 6 5 C3.03 5 0.06 5 -3 5 C-2.01 3.35 -1.02 1.7 0 0 Z " fill="#58CC96" transform="translate(248,243)"/>
<path d="M0 0 C0.33 0.99 0.66 1.98 1 3 C1.66 3.33 2.32 3.66 3 4 C3.66 4.33 4.32 4.66 5 5 C5.33 5.99 5.66 6.98 6 8 C5.34 8.66 4.68 9.32 4 10 C3.34 9.01 2.68 8.02 2 7 C-0.05003955 5.80767387 -0.05003955 5.80767387 -2 5 C-1.34 3.35 -0.68 1.7 0 0 Z " fill="#24BF76" transform="translate(257,230)"/>
<path d="M0 0 C2.97 0.495 2.97 0.495 6 1 C5.67 1.66 5.34 2.32 5 3 C4.95977609 5.3329866 4.95679753 7.66706666 5 10 C3.35 9.67 1.7 9.34 0 9 C0.66 8.67 1.32 8.34 2 8 C2 5.69 2 3.38 2 1 C1.34 0.67 0.68 0.34 0 0 Z " fill="#9AEFC8" transform="translate(247,261)"/>
<path d="M0 0 C2.475 0.99 2.475 0.99 5 2 C5 3.65 5 5.3 5 7 C3.02 7 1.04 7 -1 7 C-1 6.34 -1 5.68 -1 5 C-0.01 4.67 0.98 4.34 2 4 C1.34 2.68 0.68 1.36 0 0 Z " fill="#54CA94" transform="translate(255,248)"/>
<path d="M0 0 C0.33 1.32 0.66 2.64 1 4 C0.34 4 -0.32 4 -1 4 C-1.33 6.31 -1.66 8.62 -2 11 C-2.99 10.67 -3.98 10.34 -5 10 C-3.35 6.7 -1.7 3.4 0 0 Z " fill="#55C791" transform="translate(231,245)"/>
<path d="M0 0 C0.99 0.33 1.98 0.66 3 1 C3 2.65 3 4.3 3 6 C1.68 5.67 0.36 5.34 -1 5 C-0.67 3.35 -0.34 1.7 0 0 Z " fill="#4CB687" transform="translate(246,251)"/>
<path d="M0 0 C1.5 1.3125 1.5 1.3125 3 3 C3 3.99 3 4.98 3 6 C3.66 6 4.32 6 5 6 C5.33 7.32 5.66 8.64 6 10 C5.34 10 4.68 10 4 10 C4 9.01 4 8.02 4 7 C2.68 7 1.36 7 0 7 C0 4.69 0 2.38 0 0 Z " fill="#4DC68E" transform="translate(266,242)"/>
<path d="M0 0 C-1.36983503 3.16115776 -1.9890638 3.9927092 -5 6 C-7.1875 5.625 -7.1875 5.625 -9 5 C-8.01 5 -7.02 5 -6 5 C-5.71125 4.360625 -5.4225 3.72125 -5.125 3.0625 C-3.72314735 0.49243681 -2.91896073 0 0 0 Z " fill="#5BC795" transform="translate(277,280)"/>
<path d="M0 0 C2.4375 0.375 2.4375 0.375 5 1 C5.33 1.66 5.66 2.32 6 3 C5.0625 5.625 5.0625 5.625 4 8 C3.67 8 3.34 8 3 8 C3 6.02 3 4.04 3 2 C2.01 2 1.02 2 0 2 C0 1.34 0 0.68 0 0 Z " fill="#68CA9D" transform="translate(258,216)"/>
<path d="M0 0 C0.66 0 1.32 0 2 0 C2.33 0.99 2.66 1.98 3 3 C2.525625 3.391875 2.05125 3.78375 1.5625 4.1875 C-0.35179633 6.40808374 -0.61266988 8.13375709 -1 11 C-1.33 11 -1.66 11 -2 11 C-2.19622241 6.78121808 -1.80230168 3.82989106 0 0 Z " fill="#4EC48F" transform="translate(242,246)"/>
<path d="M0 0 C1.32 0.33 2.64 0.66 4 1 C4 2.98 4 4.96 4 7 C3.01 6.67 2.02 6.34 1 6 C0.67 4.02 0.34 2.04 0 0 Z " fill="#4EC990" transform="translate(239,224)"/>
</svg>